<svg width="1593" height="462" viewBox="0 0 1593 462" fill="none" xmlns="http://www.w3.org/2000/svg">
<path fill-rule="evenodd" clip-rule="evenodd" d="M0 429.05C0 447.248 14.7521 462 32.9498 462H41V444.402H32.9498C24.4714 444.402 17.5984 437.529 17.5984 429.05V421H0V429.05Z" fill="white"/>
<path fill-rule="evenodd" clip-rule="evenodd" d="M1593 429.05C1593 447.248 1578.25 462 1560.05 462H1552V444.402H1560.05C1568.53 444.402 1575.4 437.529 1575.4 429.05V421H1593V429.05Z" fill="white"/>
<path fill-rule="evenodd" clip-rule="evenodd" d="M0 32.95C0 14.7524 14.7521 0.000244141 32.9498 0.000244141H41V17.5986H32.9498C24.4714 17.5986 17.5984 24.4717 17.5984 32.95V41.0002H0V32.95Z" fill="white"/>
<path fill-rule="evenodd" clip-rule="evenodd" d="M1593 32.9498C1593 14.7521 1578.25 0 1560.05 0H1552V17.5984H1560.05C1568.53 17.5984 1575.4 24.4714 1575.4 32.9498V41H1593V32.9498Z" fill="white"/>
</svg>
