<svg width="51" height="51" viewBox="0 0 51 51" fill="none" xmlns="http://www.w3.org/2000/svg">
<path d="M8.40909 3.60227H12.4444V0.397727H8.40909V3.60227ZM3.60227 12.4444V8.40909H0.397727V12.4444H3.60227ZM8.40909 0.397727C3.98454 0.397727 0.397727 3.98453 0.397727 8.40909H3.60227C3.60227 5.75436 5.75436 3.60227 8.40909 3.60227V0.397727Z" fill="white"/>
<path d="M8.40909 47.3977H12.4444V50.6023H8.40909V47.3977ZM3.60227 38.5556V42.5909H0.397727V38.5556H3.60227ZM8.40909 50.6023C3.98454 50.6023 0.397727 47.0155 0.397727 42.5909H3.60227C3.60227 45.2456 5.75436 47.3977 8.40909 47.3977V50.6023Z" fill="white"/>
<path d="M42.5909 3.60227H38.5556V0.397727H42.5909V3.60227ZM47.3977 12.4444V8.40909H50.6023V12.4444H47.3977ZM42.5909 0.397727C47.0155 0.397727 50.6023 3.98453 50.6023 8.40909H47.3977C47.3977 5.75436 45.2456 3.60227 42.5909 3.60227V0.397727Z" fill="white"/>
<path d="M42.5909 47.3977H38.5556V50.6023H42.5909V47.3977ZM47.3977 38.5556V42.5909H50.6023V38.5556H47.3977ZM42.5909 50.6023C47.0155 50.6023 50.6023 47.0155 50.6023 42.5909H47.3977C47.3977 45.2456 45.2456 47.3977 42.5909 47.3977V50.6023Z" fill="white"/>
<path d="M16.1273 23V11.9428H20.5545C21.3679 11.9428 22.0464 12.0634 22.5899 12.3045C23.1334 12.5457 23.542 12.8804 23.8155 13.3088C24.0891 13.7335 24.2258 14.223 24.2258 14.7773C24.2258 15.2092 24.1394 15.5889 23.9667 15.9165C23.7939 16.2404 23.5564 16.5068 23.254 16.7155C22.9553 16.9207 22.6133 17.0665 22.2282 17.1529V17.2608C22.6493 17.2788 23.0434 17.3976 23.4106 17.6172C23.7813 17.8367 24.0819 18.1445 24.3122 18.5404C24.5426 18.9327 24.6578 19.4007 24.6578 19.9442C24.6578 20.5308 24.512 21.0546 24.2204 21.5153C23.9325 21.9724 23.506 22.3341 22.9409 22.6005C22.3758 22.8668 21.6793 23 20.8514 23H16.1273ZM18.4651 21.0887H20.3709C21.0224 21.0887 21.4975 20.9646 21.7963 20.7162C22.095 20.4643 22.2444 20.1295 22.2444 19.712C22.2444 19.406 22.1706 19.1361 22.023 18.9021C21.8755 18.6682 21.6649 18.4846 21.3913 18.3514C21.1214 18.2183 20.7993 18.1517 20.4249 18.1517H18.4651V21.0887ZM18.4651 16.5698H20.1982C20.5185 16.5698 20.8028 16.514 21.0512 16.4024C21.3032 16.2872 21.5011 16.1252 21.6451 15.9165C21.7927 15.7077 21.8665 15.4576 21.8665 15.166C21.8665 14.7665 21.7243 14.4443 21.4399 14.1996C21.1592 13.9548 20.7597 13.8325 20.2414 13.8325H18.4651V16.5698ZM27.4855 23V11.9428H34.9361V13.8703H29.8233V16.505H34.5528V18.4324H29.8233V21.0725H34.9577V23H27.4855Z" fill="white"/>
<path d="M17.2834 27.186L19.956 35.5868H20.0585L22.7365 27.186H25.328L21.5163 38.2432H18.5036L14.6865 27.186H17.2834ZM26.6588 38.2432V27.186H31.0213C31.8563 27.186 32.569 27.3353 33.1593 27.6341C33.7532 27.9292 34.2049 28.3486 34.5144 28.8921C34.8276 29.432 34.9841 30.0672 34.9841 30.7979C34.9841 31.5322 34.8258 32.1639 34.509 32.693C34.1923 33.2185 33.7334 33.6216 33.1323 33.9023C32.5348 34.1831 31.8113 34.3235 30.9619 34.3235H28.041V32.4446H30.5839C31.0303 32.4446 31.401 32.3834 31.6961 32.261C31.9913 32.1387 32.2108 31.9551 32.3548 31.7103C32.5024 31.4656 32.5762 31.1614 32.5762 30.7979C32.5762 30.4308 32.5024 30.1212 32.3548 29.8693C32.2108 29.6173 31.9895 29.4266 31.6907 29.297C31.3956 29.1638 31.0231 29.0972 30.5731 29.0972H28.9966V38.2432H26.6588ZM32.6302 33.2113L35.3783 38.2432H32.7975L30.1088 33.2113H32.6302Z" fill="white"/>
</svg>
